# xmcd CD database file
#
# Track frame offsets:
#	150
#	21873
#	34317
#	49966
#	62712
#	79633
#	97804
#	113626
#	124497
#	139043
#	154839
#	170534
#	191608
#	206154
#	221651
#	236237
#
# Disc length: 3330 seconds
#
# Revision: 0
# Processed by: cddbd v1.4b42PL1 Copyright (c) Steve Scherf et al.
# Submitted via: Feurio! 1.62 - http://www.feurio.com
#
DISCID=e80d0010
DTITLE=Jonny Hill - Ruf Teddybär EINS-VIER
DYEAR=1900
DGENRE=
TTITLE0=Ruf Teddybär Eins-Vier
TTITLE1=500 Meilen von zu Haus
TTITLE2=Wieviel braucht man zum Glückl
TTITLE3=Green Green Grass of Home
TTITLE4=Rosen für Mama
TTITLE5=Mach's gut mein treuer Freund
TTITLE6=Ich möcht so gern Dave Dudley
TTITLE7=Adios Amigo
TTITLE8=wie heisst deine Mama
TTITLE9=Und wieder zeigt dir einer ein
TTITLE10=Pack doch deinen Koffer wieder
TTITLE11=Papillon
TTITLE12=Wenn der Breifträger klingelt
TTITLE13=Lucille
TTITLE14=Nur noch einmal nach Haus
TTITLE15=Jetzt sage Ich euch gute Nacht
EXTD=
EXTT0=
EXTT1=
EXTT2=
EXTT3=
EXTT4=
EXTT5=
EXTT6=
EXTT7=
EXTT8=
EXTT9=
EXTT10=
EXTT11=
EXTT12=
EXTT13=
EXTT14=
EXTT15=
PLAYORDER=
